<?xml version="1.0" encoding="UTF-8"?>
<svg id="Layer_1" xmlns="http://www.w3.org/2000/svg" version="1.1" viewBox="0 0 143.1 143">
  <!-- Generator: Adobe Illustrator 29.0.1, SVG Export Plug-In . SVG Version: 2.1.0 Build 192)  -->
  <defs>
    <style>
      .st0 {
        fill: #fff;
      }

      .st1 {
        fill: #0520c1;
      }

      .st2 {
        fill: #ffa42c;
      }
    </style>
  </defs>
  <path class="st1" d="M140.5,31.9h0c-1.8-13.8-3.6-24.4-19.1-27.7C106.2.9,89.4.7,73.8,0l-18.1.4c-11.5,1.2-23.8,1.5-35.1,4C6.8,7.5,5,16.2,3.2,28.6-1,57.2-1.4,93.3,4.4,121.7c2.8,13.9,10.9,16.2,23.6,18.1,28.4,4.3,60.5,4.4,88.9-.2,14.8-2.4,20.2-6.9,22.7-22,4.5-27.6,4.6-58,.9-85.7ZM85.6,86c.6,1,.7,1.7.3,2.8,0,0,0,0,0,0-.2.4-.4.8-.7,1.1,0,0-.1.2-.2.2-2.3,2.2-7.1,1.8-9.6.7-.3-1.1-.7-2.3-1.3-3.2-1.6-2.4-9.5-7.7-12.2-9.7-1.6-1.1-3.3-2.5-5.2-2.9-3.4-.7-5.9.5-8,2.5-.3.2-.5.5-.8.8-2.6,2.8-4.6,6.8-7,9.4,0,.1-.2.2-.3.3l-3.9,5.5c0,0,0,.1,0,0,0,0-.1,0-.1,0-.8-.8-.7-2.6-.3-3.6h-.2c4.3-6,8.7-11.8,13.1-17.7,1.3-1.7,4-6.4,5.9-7,2.8-.9,4.8.9,6.9,2.4,6.2,4.4,12.3,9,18.4,13.5,1,.7,2.5,1.8,3.8,2.9.3.3.6.6.9.9.3.3.5.6.7.9ZM74.7,44.3c1.4.2,2.9.8,3.2,2.4.1.8-.9.8-1.4.6-.3,0-.4-.9-.8-1.3-.2-.1-.8-.4-.9-.4-.3,0,0,.3,0,.3v3.6c5,.4,4.7,6.4,0,7l-.2.6h-.9v-.5c-1.4-.2-2.8-.7-3.5-2-.1-.3-.5-1.3-.2-1.5h1.5c.2,1.2.8,2,2.1,2.2v-4.3c-1.4-.5-3.2-.9-3.5-2.7-.4-2.4,1.3-3.7,3.5-4-.2-1.7,1.2-1.5,1.1,0ZM94.9,114.9v-.3c-5.8,8.3-15.9,12.5-26.1,11.2-8.1-1.1-17.6-8.3-24.2-13-2.4-1.7-5.6-4-7.7-6-1.9-1.8-1.9-3.8-.5-5.9,4.2-6.7,10-12.9,14.4-19.5,3.7-4.2,7.2-.5,10.5,2,1.9,1.4,4,2.9,5.9,4.4,2.1,1.6,4.7,3.2,3.3,6.2-1.7,3.8-8.3,2.6-11.5,1.5-1.4-.5-3.4-2-4.7-.5-1.4,1.6,0,3.1,1.4,3.8,4.5,2.1,12,3.3,16.1,0,1-.8,2.3-2.2,2.6-3.4l3.2.7c8.9,1.8,17.1-6.9,9.7-14.5l-10.7-8c3.4-.2,6.8-.5,10-1.5.6-.2,3.5-1.5,3.8-1.4.2,0,.3.2.3.4,2.2,6,5.5,11.9,7.6,18,3.2,8.7,1.9,18.1-3.4,25.7ZM74.7,51.2v4.2c2.5-.4,2.6-3.8,0-4.2ZM73.7,49.5v-3.7c-2.4.2-2.4,3.6,0,3.7Z"/>
  <g>
    <g>
      <path class="st2" d="M73,36.6c-9.6.8-15.5,10.8-11.7,19.6.1.3.3.6.4.9,4.9,9.5,18.7,10.1,24.4.7.1-.2.3-.5.4-.7,5-9.7-2.6-21.4-13.5-20.5ZM72.7,60.8c-.2.5-1.4,0-1.8,0-2.2-.6-4-2-5.3-3.7-2.4-3.2-2.9-7.7-1-11.5,1.3-2.5,4.3-5,7.1-5.4.2,0,.7,0,.9,0,.3.9-.9.8-1.6,1.1-7.2,2.6-8.7,11-4.1,15.8,1,1.1,2.4,2.1,4.1,2.7.5.2,2,.2,1.7,1ZM74.5,57.6v.2h-.4c-.2,0-.4,0-.4-.2v-1c-1.4-.2-2.8-.7-3.5-2-.1-.3-.5-1.3-.2-1.5h1.5c.2,1.2.8,2,2.1,2.2v-4.3c-1.4-.5-3.2-.9-3.5-2.7-.4-2.4,1.3-3.7,3.5-4-.2-1.7,1.2-1.5,1.1,0,1.4.2,2.9.8,3.2,2.4.1.8-.9.8-1.4.6-.3,0-.4-.9-.8-1.3-.2-.1-.8-.4-.9-.4-.3,0,0,.3,0,.3v3.6c5,.4,4.7,6.4,0,7l-.2.6v.5ZM77.5,60.7h.2c-.4,0-2,.6-2.2.1-.3-.8,1.5-.9,2.1-1.1,1.5-.6,2.8-1.5,3.8-2.6,4.1-4.7,2.9-13.1-3.8-15.6-.6-.2-2.2-.3-2.2-1s0-.3.2-.3c1.2-.4,4.3,1.4,5.2,2.2,4.6,3.9,4.9,10.4,1.7,14.7-1.2,1.6-2.9,2.9-5,3.6Z"/>
      <path class="st0" d="M74.8,49.5v-3.6s-.3-.3,0-.3.7.3.9.4c.4.4.5,1.3.8,1.3.5.2,1.5.2,1.4-.6-.3-1.6-1.8-2.2-3.2-2.4,0-1.5-1.3-1.7-1.1,0-2.2.3-3.9,1.6-3.5,4,.3,1.8,2.1,2.2,3.5,2.7v4.3c-1.3-.2-1.9-1-2.1-2.2h-1.5c-.3.2,0,1.2.2,1.5.7,1.3,2.1,1.8,3.5,2v.5h.9l.2-.6c4.7-.6,5-6.6,0-7ZM73.7,49.5c-2.4-.1-2.4-3.5,0-3.7v3.7ZM74.7,55.4v-4.2c2.6.4,2.5,3.8,0,4.2Z"/>
      <path class="st0" d="M72.7,60.8c-.2.5-1.4,0-1.8,0-6.4-1.8-9.3-9.4-6.3-15.2,1.3-2.5,4.3-5,7.1-5.4.2,0,.7,0,.9,0,.3.9-.9.8-1.6,1.1-8.9,3.2-9,15.2,0,18.5.5.2,2,.2,1.7,1h0Z"/>
      <path class="st0" d="M77.7,60.6c-.4,0-2,.7-2.2.2-.3-.8,1.5-.9,2.1-1.1,8.2-3.1,8.2-15.1,0-18.2-.6-.2-2.2-.3-2.2-1s0-.3.2-.3c1.2-.4,4.3,1.4,5.2,2.2,6.3,5.3,4.5,15.7-3.3,18.3h.2Z"/>
      <path class="st2" d="M74.7,55.4v-4.2c2.6.4,2.5,3.8,0,4.2Z"/>
      <path class="st2" d="M73.7,45.8v3.7c-2.4-.1-2.4-3.5,0-3.7Z"/>
    </g>
    <g>
      <path class="st0" d="M95,114.6c-5.9,8.3-16,12.5-26.2,11.2-8.1-1.1-17.6-8.3-24.2-13-2.4-1.7-5.6-4-7.7-6-1.9-1.8-1.9-3.8-.5-5.9,4.2-6.7,10-12.9,14.4-19.5,3.7-4.2,7.2-.5,10.5,2,1.9,1.4,4,2.9,5.9,4.4,2.1,1.6,4.7,3.2,3.3,6.2-1.7,3.8-8.3,2.6-11.5,1.5-1.4-.5-3.4-2-4.7-.5-1.4,1.6,0,3.1,1.4,3.8,4.5,2.1,12,3.3,16.1,0,1-.8,2.3-2.2,2.6-3.4l3.2.7c8.9,1.8,17.1-6.9,9.7-14.5l-10.7-8c3.4-.2,6.8-.5,10-1.5.6-.2,3.5-1.5,3.8-1.4.2,0,.3.2.3.4,2.2,6,5.5,11.9,7.6,18,3.2,8.7,1.9,18.1-3.4,25.7v-.3Z"/>
      <path class="st0" d="M91.3,64.7c-5.1,4.7-14,4.5-20.5,4.4-.7-.5-1.4-.9-2.1-1.4h0c-5.2-3.6-10.7-10-17.5-5-2.6,1.9-7,9-9.1,11.9-1.9,2.7-.6.6-.4.3-1.8,2.5-3.6,4.9-5.3,7.4-.5.3-.9-1.6-.9-1.9,0-.5.3-1.4.5-1.9,3.5-5,7.2-9.8,10.9-14.7,2-2.7,3.6-6.3,7.3-6.7h35.7c4.6.7,4.4,4.9,1.4,7.6Z"/>
      <path class="st0" d="M85.8,88.9c-1.4,3.8-7.6,3.5-10.6,2.2-.3-1.1-.7-2.3-1.3-3.2-1.6-2.4-9.5-7.7-12.2-9.7-1.6-1.1-3.3-2.5-5.2-2.9-8.4-1.8-11.5,8.2-16.1,13l-3.9,5.5c0,.2-.2,0-.2,0-.8-.8-.7-2.6-.3-3.6,4.3-6,8.7-11.8,13.1-17.7,1.3-1.7,4-6.4,5.9-7,2.8-.9,4.8.9,6.9,2.4,6.2,4.4,12.3,9,18.4,13.5,1.5,1.1,4.5,3.2,5.4,4.7.6,1,.7,1.7.3,2.8h-.2Z"/>
      <path class="st0" d="M54.5,30.7c3.3,2.9,2.7,10.1,2,14s-1.2,5.1-1.6,7.7c-.3.5-1.6.4-2.2.5-5.5,1.3-8.6,7.2-11.7,11.5-.6.8-1.3,1.6-1.9,2.5-.1.2,0,.4-.4.3l7.2-28.1c1-2.6,1.1-6.2,2.9-8.4,1.5-1.8,4-1.5,5.7,0Z"/>
      <path class="st0" d="M72.5,31c-.6.6-1.6.8-2.4.6s-1.4-1-1.5-1.7c-.2-1.6,0-3.5-.2-5.1s-.5-4-.3-5.7,3.4-3,4.8-1,.3,4.6.2,6.3c0,1.8,0,3.6-.2,5.4s-.2.9-.5,1.2h0Z"/>
      <path class="st0" d="M93.2,23.9c.2,0,.9,1,1,1.2.8,2.2-1.6,4.2-2.8,5.8s-1.6,2.4-2.5,3.5c-.3.4-1.1,1.4-1.4,1.6-1.9,1.4-4.2-.4-3.4-2.6,1.9-2.7,3.3-5.7,5.2-8.3s.7-1,1.4-1.3,1.8-.3,2.5,0h0Z"/>
      <path class="st0" d="M106.8,41.5c1.5,1,1.3,3.7-.3,4.5l-10.4,3.3c-2.5.2-3.2-3.1-1.3-4.2h.5c2.3-1.1,6.6-3.1,8.9-3.7.9-.2,1.8-.3,2.6.3v-.2Z"/>
    </g>
  </g>
</svg>